<mxfile host="app.diagrams.net" modified="2023-06-09T19:05:00.376Z" agent="Mozilla/5.0 (X11; Linux x86_64; rv:109.0) Gecko/20100101 Firefox/113.0" etag="47uBQc5pwPtSviiz_OBg" version="21.3.8" type="device">
  <diagram name="Page-1" id="qQCsbmFtiBFMgOcqyGXc">
    <mxGraphModel dx="1317" dy="905" grid="1" gridSize="10" guides="1" tooltips="1" connect="1" arrows="1" fold="1" page="1" pageScale="1" pageWidth="850" pageHeight="1100" math="1" shadow="0">
      <root>
        <mxCell id="0" />
        <mxCell id="1" parent="0" />
        <mxCell id="98bF5p4SYVcPBmFiXfol-10" value="&lt;font style=&quot;font-size: 24px;&quot;&gt;$$y$$&lt;/font&gt;" style="rounded=0;whiteSpace=wrap;html=1;strokeColor=none;" vertex="1" parent="1">
          <mxGeometry x="721" y="369" width="120" height="60" as="geometry" />
        </mxCell>
        <mxCell id="98bF5p4SYVcPBmFiXfol-9" value="&lt;font style=&quot;font-size: 24px;&quot;&gt;$$y_2$$&lt;/font&gt;" style="rounded=0;whiteSpace=wrap;html=1;strokeColor=none;" vertex="1" parent="1">
          <mxGeometry x="425" y="190" width="120" height="60" as="geometry" />
        </mxCell>
        <mxCell id="98bF5p4SYVcPBmFiXfol-8" value="&lt;font style=&quot;font-size: 24px;&quot;&gt;$$y_1$$&lt;/font&gt;" style="rounded=0;whiteSpace=wrap;html=1;strokeColor=none;" vertex="1" parent="1">
          <mxGeometry x="230" y="190" width="120" height="60" as="geometry" />
        </mxCell>
        <mxCell id="98bF5p4SYVcPBmFiXfol-11" style="rounded=0;orthogonalLoop=1;jettySize=auto;html=1;exitX=1;exitY=0.5;exitDx=0;exitDy=0;entryX=0.025;entryY=0.6;entryDx=0;entryDy=0;entryPerimeter=0;" edge="1" parent="1" source="7nbwtN7D6u6dlneCxtmq-1" target="7nbwtN7D6u6dlneCxtmq-2">
          <mxGeometry relative="1" as="geometry" />
        </mxCell>
        <mxCell id="98bF5p4SYVcPBmFiXfol-12" style="edgeStyle=none;shape=connector;rounded=0;orthogonalLoop=1;jettySize=auto;html=1;exitX=1;exitY=0.5;exitDx=0;exitDy=0;entryX=0;entryY=0.5;entryDx=0;entryDy=0;labelBackgroundColor=default;strokeColor=default;fontFamily=Helvetica;fontSize=11;fontColor=default;endArrow=classic;" edge="1" parent="1" source="7nbwtN7D6u6dlneCxtmq-1" target="98bF5p4SYVcPBmFiXfol-1">
          <mxGeometry relative="1" as="geometry" />
        </mxCell>
        <mxCell id="98bF5p4SYVcPBmFiXfol-13" style="edgeStyle=none;shape=connector;rounded=0;orthogonalLoop=1;jettySize=auto;html=1;exitX=1;exitY=0.5;exitDx=0;exitDy=0;entryX=0;entryY=0.5;entryDx=0;entryDy=0;labelBackgroundColor=default;strokeColor=default;fontFamily=Helvetica;fontSize=11;fontColor=default;endArrow=classic;" edge="1" parent="1" source="7nbwtN7D6u6dlneCxtmq-1" target="98bF5p4SYVcPBmFiXfol-2">
          <mxGeometry relative="1" as="geometry" />
        </mxCell>
        <mxCell id="98bF5p4SYVcPBmFiXfol-15" style="edgeStyle=none;shape=connector;rounded=0;orthogonalLoop=1;jettySize=auto;html=1;exitX=1;exitY=0.5;exitDx=0;exitDy=0;entryX=0;entryY=0.5;entryDx=0;entryDy=0;labelBackgroundColor=default;strokeColor=default;fontFamily=Helvetica;fontSize=11;fontColor=default;endArrow=classic;" edge="1" parent="1" source="7nbwtN7D6u6dlneCxtmq-1" target="98bF5p4SYVcPBmFiXfol-3">
          <mxGeometry relative="1" as="geometry" />
        </mxCell>
        <mxCell id="7nbwtN7D6u6dlneCxtmq-1" value="&lt;div style=&quot;font-size: 24px;&quot;&gt;&lt;font style=&quot;font-size: 24px;&quot;&gt;$$\textbf{x}$$&lt;/font&gt;&lt;/div&gt;" style="ellipse;whiteSpace=wrap;html=1;aspect=fixed;" parent="1" vertex="1">
          <mxGeometry x="80" y="420" width="80" height="80" as="geometry" />
        </mxCell>
        <mxCell id="98bF5p4SYVcPBmFiXfol-16" style="edgeStyle=none;shape=connector;rounded=0;orthogonalLoop=1;jettySize=auto;html=1;exitX=1;exitY=0.5;exitDx=0;exitDy=0;entryX=0;entryY=0.5;entryDx=0;entryDy=0;labelBackgroundColor=default;strokeColor=default;fontFamily=Helvetica;fontSize=11;fontColor=default;endArrow=classic;" edge="1" parent="1" source="7nbwtN7D6u6dlneCxtmq-2" target="98bF5p4SYVcPBmFiXfol-7">
          <mxGeometry relative="1" as="geometry" />
        </mxCell>
        <mxCell id="98bF5p4SYVcPBmFiXfol-17" style="edgeStyle=none;shape=connector;rounded=0;orthogonalLoop=1;jettySize=auto;html=1;exitX=1;exitY=0.5;exitDx=0;exitDy=0;entryX=0;entryY=0.5;entryDx=0;entryDy=0;labelBackgroundColor=default;strokeColor=default;fontFamily=Helvetica;fontSize=11;fontColor=default;endArrow=classic;" edge="1" parent="1" source="7nbwtN7D6u6dlneCxtmq-2" target="98bF5p4SYVcPBmFiXfol-6">
          <mxGeometry relative="1" as="geometry" />
        </mxCell>
        <mxCell id="98bF5p4SYVcPBmFiXfol-18" style="edgeStyle=none;shape=connector;rounded=0;orthogonalLoop=1;jettySize=auto;html=1;exitX=1;exitY=0.5;exitDx=0;exitDy=0;entryX=0;entryY=0.5;entryDx=0;entryDy=0;labelBackgroundColor=default;strokeColor=default;fontFamily=Helvetica;fontSize=11;fontColor=default;endArrow=classic;" edge="1" parent="1" source="7nbwtN7D6u6dlneCxtmq-2" target="98bF5p4SYVcPBmFiXfol-5">
          <mxGeometry relative="1" as="geometry" />
        </mxCell>
        <mxCell id="98bF5p4SYVcPBmFiXfol-19" style="edgeStyle=none;shape=connector;rounded=0;orthogonalLoop=1;jettySize=auto;html=1;exitX=1;exitY=0.5;exitDx=0;exitDy=0;entryX=0;entryY=0.5;entryDx=0;entryDy=0;labelBackgroundColor=default;strokeColor=default;fontFamily=Helvetica;fontSize=11;fontColor=default;endArrow=classic;" edge="1" parent="1" source="7nbwtN7D6u6dlneCxtmq-2" target="98bF5p4SYVcPBmFiXfol-4">
          <mxGeometry relative="1" as="geometry" />
        </mxCell>
        <mxCell id="7nbwtN7D6u6dlneCxtmq-2" value="&lt;div&gt;&lt;font style=&quot;font-size: 24px;&quot;&gt;$$f$$&lt;/font&gt;&lt;/div&gt;" style="ellipse;whiteSpace=wrap;html=1;aspect=fixed;" parent="1" vertex="1">
          <mxGeometry x="250" y="239" width="80" height="80" as="geometry" />
        </mxCell>
        <mxCell id="7nbwtN7D6u6dlneCxtmq-3" value="&lt;font style=&quot;font-size: 24px;&quot;&gt;$$f$$&lt;/font&gt;" style="ellipse;whiteSpace=wrap;html=1;aspect=fixed;" parent="1" vertex="1">
          <mxGeometry x="741" y="420" width="80" height="80" as="geometry" />
        </mxCell>
        <mxCell id="98bF5p4SYVcPBmFiXfol-21" style="edgeStyle=none;shape=connector;rounded=0;orthogonalLoop=1;jettySize=auto;html=1;exitX=1;exitY=0.5;exitDx=0;exitDy=0;labelBackgroundColor=default;strokeColor=default;fontFamily=Helvetica;fontSize=11;fontColor=default;endArrow=classic;entryX=0;entryY=0.5;entryDx=0;entryDy=0;" edge="1" parent="1" source="98bF5p4SYVcPBmFiXfol-1" target="98bF5p4SYVcPBmFiXfol-4">
          <mxGeometry relative="1" as="geometry">
            <mxPoint x="412.8482987386865" y="309.3732040917844" as="targetPoint" />
          </mxGeometry>
        </mxCell>
        <mxCell id="98bF5p4SYVcPBmFiXfol-22" style="edgeStyle=none;shape=connector;rounded=0;orthogonalLoop=1;jettySize=auto;html=1;exitX=1;exitY=0.5;exitDx=0;exitDy=0;entryX=0;entryY=0.5;entryDx=0;entryDy=0;labelBackgroundColor=default;strokeColor=default;fontFamily=Helvetica;fontSize=11;fontColor=default;endArrow=classic;" edge="1" parent="1" source="98bF5p4SYVcPBmFiXfol-1" target="98bF5p4SYVcPBmFiXfol-5">
          <mxGeometry relative="1" as="geometry" />
        </mxCell>
        <mxCell id="98bF5p4SYVcPBmFiXfol-23" style="edgeStyle=none;shape=connector;rounded=0;orthogonalLoop=1;jettySize=auto;html=1;exitX=1;exitY=0.5;exitDx=0;exitDy=0;entryX=0;entryY=0.5;entryDx=0;entryDy=0;labelBackgroundColor=default;strokeColor=default;fontFamily=Helvetica;fontSize=11;fontColor=default;endArrow=classic;" edge="1" parent="1" source="98bF5p4SYVcPBmFiXfol-1" target="98bF5p4SYVcPBmFiXfol-6">
          <mxGeometry relative="1" as="geometry" />
        </mxCell>
        <mxCell id="98bF5p4SYVcPBmFiXfol-24" style="edgeStyle=none;shape=connector;rounded=0;orthogonalLoop=1;jettySize=auto;html=1;exitX=1;exitY=0.5;exitDx=0;exitDy=0;entryX=0;entryY=0.5;entryDx=0;entryDy=0;labelBackgroundColor=default;strokeColor=default;fontFamily=Helvetica;fontSize=11;fontColor=default;endArrow=classic;" edge="1" parent="1" source="98bF5p4SYVcPBmFiXfol-1" target="98bF5p4SYVcPBmFiXfol-7">
          <mxGeometry relative="1" as="geometry" />
        </mxCell>
        <mxCell id="98bF5p4SYVcPBmFiXfol-1" value="&lt;font style=&quot;font-size: 24px;&quot;&gt;$$f$$&lt;/font&gt;" style="ellipse;whiteSpace=wrap;html=1;aspect=fixed;" vertex="1" parent="1">
          <mxGeometry x="250" y="359" width="80" height="80" as="geometry" />
        </mxCell>
        <mxCell id="98bF5p4SYVcPBmFiXfol-29" style="edgeStyle=none;shape=connector;rounded=0;orthogonalLoop=1;jettySize=auto;html=1;exitX=1;exitY=0.5;exitDx=0;exitDy=0;entryX=0;entryY=0.5;entryDx=0;entryDy=0;labelBackgroundColor=default;strokeColor=default;fontFamily=Helvetica;fontSize=11;fontColor=default;endArrow=classic;" edge="1" parent="1" source="98bF5p4SYVcPBmFiXfol-2" target="98bF5p4SYVcPBmFiXfol-4">
          <mxGeometry relative="1" as="geometry" />
        </mxCell>
        <mxCell id="98bF5p4SYVcPBmFiXfol-30" style="edgeStyle=none;shape=connector;rounded=0;orthogonalLoop=1;jettySize=auto;html=1;exitX=1;exitY=0.5;exitDx=0;exitDy=0;entryX=0;entryY=0.5;entryDx=0;entryDy=0;labelBackgroundColor=default;strokeColor=default;fontFamily=Helvetica;fontSize=11;fontColor=default;endArrow=classic;" edge="1" parent="1" source="98bF5p4SYVcPBmFiXfol-2" target="98bF5p4SYVcPBmFiXfol-6">
          <mxGeometry relative="1" as="geometry" />
        </mxCell>
        <mxCell id="98bF5p4SYVcPBmFiXfol-31" style="edgeStyle=none;shape=connector;rounded=0;orthogonalLoop=1;jettySize=auto;html=1;exitX=1;exitY=0.5;exitDx=0;exitDy=0;entryX=0;entryY=0.5;entryDx=0;entryDy=0;labelBackgroundColor=default;strokeColor=default;fontFamily=Helvetica;fontSize=11;fontColor=default;endArrow=classic;" edge="1" parent="1" source="98bF5p4SYVcPBmFiXfol-2" target="98bF5p4SYVcPBmFiXfol-5">
          <mxGeometry relative="1" as="geometry" />
        </mxCell>
        <mxCell id="98bF5p4SYVcPBmFiXfol-32" style="edgeStyle=none;shape=connector;rounded=0;orthogonalLoop=1;jettySize=auto;html=1;exitX=1;exitY=0.5;exitDx=0;exitDy=0;entryX=0;entryY=0.5;entryDx=0;entryDy=0;labelBackgroundColor=default;strokeColor=default;fontFamily=Helvetica;fontSize=11;fontColor=default;endArrow=classic;" edge="1" parent="1" source="98bF5p4SYVcPBmFiXfol-2" target="98bF5p4SYVcPBmFiXfol-7">
          <mxGeometry relative="1" as="geometry" />
        </mxCell>
        <mxCell id="98bF5p4SYVcPBmFiXfol-2" value="&lt;font style=&quot;font-size: 24px;&quot;&gt;$$\vdots$$&lt;/font&gt;" style="ellipse;whiteSpace=wrap;html=1;aspect=fixed;strokeColor=none;" vertex="1" parent="1">
          <mxGeometry x="250" y="479" width="80" height="80" as="geometry" />
        </mxCell>
        <mxCell id="98bF5p4SYVcPBmFiXfol-25" style="edgeStyle=none;shape=connector;rounded=0;orthogonalLoop=1;jettySize=auto;html=1;exitX=1;exitY=0.5;exitDx=0;exitDy=0;entryX=0;entryY=0.5;entryDx=0;entryDy=0;labelBackgroundColor=default;strokeColor=default;fontFamily=Helvetica;fontSize=11;fontColor=default;endArrow=classic;" edge="1" parent="1" source="98bF5p4SYVcPBmFiXfol-3" target="98bF5p4SYVcPBmFiXfol-7">
          <mxGeometry relative="1" as="geometry" />
        </mxCell>
        <mxCell id="98bF5p4SYVcPBmFiXfol-26" style="edgeStyle=none;shape=connector;rounded=0;orthogonalLoop=1;jettySize=auto;html=1;exitX=1;exitY=0.5;exitDx=0;exitDy=0;entryX=0;entryY=0.5;entryDx=0;entryDy=0;labelBackgroundColor=default;strokeColor=default;fontFamily=Helvetica;fontSize=11;fontColor=default;endArrow=classic;" edge="1" parent="1" source="98bF5p4SYVcPBmFiXfol-3" target="98bF5p4SYVcPBmFiXfol-6">
          <mxGeometry relative="1" as="geometry" />
        </mxCell>
        <mxCell id="98bF5p4SYVcPBmFiXfol-27" style="edgeStyle=none;shape=connector;rounded=0;orthogonalLoop=1;jettySize=auto;html=1;exitX=1;exitY=0.5;exitDx=0;exitDy=0;entryX=0;entryY=0.5;entryDx=0;entryDy=0;labelBackgroundColor=default;strokeColor=default;fontFamily=Helvetica;fontSize=11;fontColor=default;endArrow=classic;" edge="1" parent="1" source="98bF5p4SYVcPBmFiXfol-3" target="98bF5p4SYVcPBmFiXfol-5">
          <mxGeometry relative="1" as="geometry" />
        </mxCell>
        <mxCell id="98bF5p4SYVcPBmFiXfol-28" style="edgeStyle=none;shape=connector;rounded=0;orthogonalLoop=1;jettySize=auto;html=1;exitX=1;exitY=0.5;exitDx=0;exitDy=0;entryX=0;entryY=0.5;entryDx=0;entryDy=0;labelBackgroundColor=default;strokeColor=default;fontFamily=Helvetica;fontSize=11;fontColor=default;endArrow=classic;" edge="1" parent="1" source="98bF5p4SYVcPBmFiXfol-3" target="98bF5p4SYVcPBmFiXfol-4">
          <mxGeometry relative="1" as="geometry" />
        </mxCell>
        <mxCell id="98bF5p4SYVcPBmFiXfol-3" value="&lt;div&gt;&lt;font style=&quot;font-size: 24px;&quot;&gt;$$f$$&lt;/font&gt;&lt;/div&gt;" style="ellipse;whiteSpace=wrap;html=1;aspect=fixed;" vertex="1" parent="1">
          <mxGeometry x="250" y="600" width="80" height="80" as="geometry" />
        </mxCell>
        <mxCell id="98bF5p4SYVcPBmFiXfol-34" style="edgeStyle=none;shape=connector;rounded=0;orthogonalLoop=1;jettySize=auto;html=1;exitX=1;exitY=0.5;exitDx=0;exitDy=0;entryX=0;entryY=0.5;entryDx=0;entryDy=0;labelBackgroundColor=default;strokeColor=default;fontFamily=Helvetica;fontSize=11;fontColor=default;endArrow=classic;" edge="1" parent="1" source="98bF5p4SYVcPBmFiXfol-4" target="98bF5p4SYVcPBmFiXfol-33">
          <mxGeometry relative="1" as="geometry" />
        </mxCell>
        <mxCell id="98bF5p4SYVcPBmFiXfol-4" value="&lt;font style=&quot;font-size: 24px;&quot;&gt;$$f$$&lt;/font&gt;" style="ellipse;whiteSpace=wrap;html=1;aspect=fixed;" vertex="1" parent="1">
          <mxGeometry x="440" y="239" width="80" height="80" as="geometry" />
        </mxCell>
        <mxCell id="98bF5p4SYVcPBmFiXfol-37" style="edgeStyle=none;shape=connector;rounded=0;orthogonalLoop=1;jettySize=auto;html=1;exitX=1;exitY=0.5;exitDx=0;exitDy=0;entryX=0;entryY=0.5;entryDx=0;entryDy=0;labelBackgroundColor=default;strokeColor=default;fontFamily=Helvetica;fontSize=11;fontColor=default;endArrow=classic;" edge="1" parent="1" source="98bF5p4SYVcPBmFiXfol-5" target="98bF5p4SYVcPBmFiXfol-33">
          <mxGeometry relative="1" as="geometry" />
        </mxCell>
        <mxCell id="98bF5p4SYVcPBmFiXfol-5" value="&lt;font style=&quot;font-size: 24px;&quot;&gt;$$f$$&lt;/font&gt;" style="ellipse;whiteSpace=wrap;html=1;aspect=fixed;" vertex="1" parent="1">
          <mxGeometry x="440" y="359" width="80" height="80" as="geometry" />
        </mxCell>
        <mxCell id="98bF5p4SYVcPBmFiXfol-38" style="edgeStyle=none;shape=connector;rounded=0;orthogonalLoop=1;jettySize=auto;html=1;exitX=1;exitY=0.5;exitDx=0;exitDy=0;entryX=0;entryY=0.5;entryDx=0;entryDy=0;labelBackgroundColor=default;strokeColor=default;fontFamily=Helvetica;fontSize=11;fontColor=default;endArrow=classic;" edge="1" parent="1" source="98bF5p4SYVcPBmFiXfol-6" target="98bF5p4SYVcPBmFiXfol-33">
          <mxGeometry relative="1" as="geometry" />
        </mxCell>
        <mxCell id="98bF5p4SYVcPBmFiXfol-6" value="&lt;font style=&quot;font-size: 24px;&quot;&gt;$$\vdots$$&lt;/font&gt;" style="ellipse;whiteSpace=wrap;html=1;aspect=fixed;strokeColor=none;" vertex="1" parent="1">
          <mxGeometry x="440" y="479" width="80" height="80" as="geometry" />
        </mxCell>
        <mxCell id="98bF5p4SYVcPBmFiXfol-39" style="edgeStyle=none;shape=connector;rounded=0;orthogonalLoop=1;jettySize=auto;html=1;exitX=1;exitY=0.5;exitDx=0;exitDy=0;entryX=0;entryY=0.5;entryDx=0;entryDy=0;labelBackgroundColor=default;strokeColor=default;fontFamily=Helvetica;fontSize=11;fontColor=default;endArrow=classic;" edge="1" parent="1" source="98bF5p4SYVcPBmFiXfol-7" target="98bF5p4SYVcPBmFiXfol-33">
          <mxGeometry relative="1" as="geometry" />
        </mxCell>
        <mxCell id="98bF5p4SYVcPBmFiXfol-7" value="&lt;font style=&quot;font-size: 24px;&quot;&gt;$$f$$&lt;/font&gt;" style="ellipse;whiteSpace=wrap;html=1;aspect=fixed;" vertex="1" parent="1">
          <mxGeometry x="440" y="600" width="80" height="80" as="geometry" />
        </mxCell>
        <mxCell id="98bF5p4SYVcPBmFiXfol-40" value="" style="edgeStyle=none;shape=connector;rounded=0;orthogonalLoop=1;jettySize=auto;html=1;labelBackgroundColor=default;strokeColor=default;fontFamily=Helvetica;fontSize=11;fontColor=default;endArrow=classic;" edge="1" parent="1" source="98bF5p4SYVcPBmFiXfol-33" target="7nbwtN7D6u6dlneCxtmq-3">
          <mxGeometry relative="1" as="geometry" />
        </mxCell>
        <mxCell id="98bF5p4SYVcPBmFiXfol-33" value="&lt;font style=&quot;font-size: 24px;&quot;&gt;$$\ldots$$&lt;/font&gt;" style="ellipse;whiteSpace=wrap;html=1;aspect=fixed;strokeColor=none;" vertex="1" parent="1">
          <mxGeometry x="590" y="420" width="80" height="80" as="geometry" />
        </mxCell>
      </root>
    </mxGraphModel>
  </diagram>
</mxfile>
